<?xml version="1.0" encoding="UTF-8"?>
<svg id="Calque_1" data-name="Calque 1" xmlns="http://www.w3.org/2000/svg" viewBox="0 0 161.36 64">
  <defs>
    <style>
      .cls-1 {
        fill: #fff7dd;
      }
    </style>
  </defs>
  <path class="cls-1" d="M1.23,19.6H12.2v23.24c0,5.57,4.52,10.09,10.09,10.09V19.6h2.89c4.46,0,8.08-3.62,8.08-8.08H9.31c-4.46,0-8.08,3.62-8.08,8.08Z"/>
  <path class="cls-1" d="M67.8,13.23c-2.28-1.14-5.07-1.71-8.38-1.71h-.51c-8.74,0-15.83,7.09-15.83,15.83v15.74c0,5.43,4.4,9.84,9.84,9.84h.25v-14.86h6.25c3.38,0,6.21-.61,8.49-1.83,2.28-1.22,3.97-2.82,5.07-4.81,1.1-1.98,1.65-4.18,1.65-6.58,0-2.6-.57-4.9-1.71-6.9-1.14-2.01-2.85-3.58-5.13-4.72Zm-4.84,15.45c-.94,.91-2.38,1.36-4.31,1.36h-5.49v-5.55c0-2.67,2.16-4.83,4.83-4.83h.65c1.93,0,3.36,.45,4.31,1.36,.94,.9,1.42,2.18,1.42,3.83s-.47,2.93-1.42,3.83Z"/>
  <path class="cls-1" d="M91.76,18.8c1.32-.7,2.72-1.24,4.18-1.64L85.02,0l-1.08,.69c-4.1,2.61-5.31,8.05-2.7,12.15l5.97,9.38c1.32-1.36,2.83-2.51,4.55-3.42Z"/>
  <path class="cls-1" d="M110.61,21.41c-2.6-1.38-5.51-2.07-8.73-2.07s-6.13,.69-8.73,2.07c-1.66,.88-3.09,2.01-4.3,3.38l.02,.03c-.58,.69-1.11,1.44-1.58,2.25-1.49,2.58-2.24,5.55-2.24,8.94s.74,6.41,2.21,8.97c1.47,2.56,3.5,4.52,6.08,5.9,2.58,1.38,5.48,2.07,8.7,2.07s6.14-.69,8.76-2.07c1.3-.68,2.46-1.52,3.49-2.5,.92-.93,1.74-1.98,2.43-3.15,1.51-2.58,2.27-5.55,2.27-8.94s-.75-6.36-2.24-8.94c-1.5-2.57-3.54-4.55-6.13-5.93Zm-3.65,20.66c-1.36,1.42-3,2.12-4.93,2.12s-3.53-.71-4.81-2.12c-1.28-1.42-1.92-3.44-1.92-6.08s.65-4.71,1.95-6.1c1.3-1.39,2.93-2.09,4.9-2.09s3.55,.71,4.87,2.12c1.32,1.42,1.98,3.44,1.98,6.08s-.68,4.66-2.03,6.08Z"/>
  <path class="cls-1" d="M158.42,16.61c-1.14-2.01-2.85-3.58-5.13-4.72-2.28-1.14-5.07-1.71-8.38-1.71h-1.76c-8.05,0-14.58,6.53-14.58,14.58h8.73c.75,0,1.36-.61,1.36-1.36,0-2.81,2.28-5.08,5.08-5.08h.4c1.93,0,3.36,.45,4.31,1.36,.94,.9,1.42,2.18,1.42,3.83s-.47,2.93-1.42,3.83c-.94,.91-2.38,1.36-4.31,1.36h-6.37c-5.08,0-9.2,4.12-9.2,9.2v3.6c0,5.57,4.52,10.09,10.09,10.09v-12.8c0-1.14,.92-2.06,2.06-2.06h4.19c3.38,0,6.21-.61,8.49-1.83,2.28-1.22,3.97-2.82,5.07-4.81,1.1-1.98,1.65-4.18,1.65-6.58,0-2.6-.57-4.9-1.71-6.9Z"/>
  <path class="cls-1" d="M136.77,55.47h-3.15v.73c0,4.31,3.49,7.8,7.8,7.8h2.28v-1.6c0-3.83-3.1-6.93-6.93-6.93Z"/>
</svg>